<svg width="91" height="40" viewBox="0 0 91 40" fill="none" xmlns="http://www.w3.org/2000/svg">
<path d="M14.472 19.216L12.504 21.568C11.512 20.736 10.68 20.184 10.008 19.912C9.32 19.624 8.512 19.48 7.584 19.48C6.64 19.48 5.88 19.672 5.304 20.056C4.744 20.44 4.464 20.944 4.464 21.568C4.464 21.984 4.6 22.328 4.872 22.6C5.16 22.872 5.568 23.088 6.096 23.248C6.624 23.408 7.464 23.624 8.616 23.896C10.888 24.456 12.456 25.072 13.32 25.744C14.184 26.416 14.64 27.456 14.688 28.864C14.688 30.496 14.072 31.832 12.84 32.872C11.624 33.896 9.992 34.408 7.944 34.408C6.456 34.408 5.136 34.176 3.984 33.712C2.864 33.232 1.664 32.416 0.384 31.264L2.4 28.888C3.568 29.912 4.528 30.592 5.28 30.928C6.096 31.296 7.008 31.48 8.016 31.48C9.024 31.48 9.832 31.272 10.44 30.856C11.048 30.424 11.352 29.848 11.352 29.128C11.352 28.696 11.216 28.344 10.944 28.072C10.688 27.816 10.344 27.616 9.912 27.472C9.496 27.312 8.808 27.128 7.848 26.92L7.032 26.728C4.776 26.184 3.232 25.552 2.4 24.832C1.568 24.096 1.152 23.04 1.152 21.664C1.152 20.224 1.76 19.016 2.976 18.04C4.192 17.064 5.752 16.576 7.656 16.576C9.064 16.576 10.264 16.776 11.256 17.176C12.28 17.576 13.352 18.256 14.472 19.216ZM28.5555 34L27.4035 30.592H19.9875L18.8115 34H15.4275L21.5235 16.96H25.9395L32.0355 34H28.5555ZM20.9475 27.808H26.4435L25.7715 25.84L25.3635 24.64C24.5955 22.464 24.0355 20.768 23.6835 19.552C23.3795 20.592 22.7635 22.464 21.8355 25.168L21.5955 25.888L20.9475 27.808ZM47.8734 29.2C47.8734 30.688 47.4014 31.864 46.4574 32.728C45.5134 33.576 44.2254 34 42.5934 34H34.0254V16.96H42.1374C43.6414 16.96 44.8734 17.344 45.8334 18.112C46.7934 18.88 47.2734 19.96 47.2734 21.352C47.2734 22.264 47.0414 23.04 46.5774 23.68C46.1134 24.304 45.4654 24.76 44.6334 25.048C46.7934 25.72 47.8734 27.104 47.8734 29.2ZM37.3854 19.552V23.824H41.3214C42.1854 23.824 42.8494 23.632 43.3134 23.248C43.7774 22.848 44.0094 22.304 44.0094 21.616C44.0094 20.24 43.1214 19.552 41.3454 19.552H37.3854ZM43.6974 30.76C44.2414 30.328 44.5134 29.72 44.5134 28.936C44.5134 28.152 44.2414 27.544 43.6974 27.112C43.1534 26.664 42.3854 26.44 41.3934 26.44H37.3854V31.408H41.3934C42.4014 31.408 43.1694 31.192 43.6974 30.76ZM53.9363 16.96V34H50.5763V16.96H53.9363ZM68.7156 16.96H71.9796V34H68.4036L64.0836 27.088L63.6036 26.32C62.2596 24.144 61.2996 22.536 60.7236 21.496C60.8196 23.496 60.8676 25.704 60.8676 28.12V34H57.6036V16.96H61.2516L65.8356 24.304L66.4836 25.384C67.4756 26.984 68.2596 28.288 68.8356 29.296C68.7556 27.616 68.7156 25.568 68.7156 23.152V16.96ZM87.1024 34L85.9504 30.592H78.5344L77.3584 34H73.9744L80.0704 16.96H84.4864L90.5824 34H87.1024ZM79.4944 27.808H84.9904L84.3184 25.84L83.9104 24.64C83.1424 22.464 82.5824 20.768 82.2304 19.552C81.9264 20.592 81.3104 22.464 80.3824 25.168L80.1424 25.888L79.4944 27.808Z" fill="black"/>
<path d="M46.8333 13H40.5H34.1667L31 3.09524L36.2778 6.80952L40.5 0L44.7222 6.80952L50 3.09524L46.8333 13Z" fill="#1677FF"/>
</svg>
